<?xml version="1.0" standalone="no"?>
<!DOCTYPE svg PUBLIC "-//W3C//DTD SVG 1.1//EN" "http://www.w3.org/Graphics/SVG/1.1/DTD/svg11.dtd" >
<svg xmlns="http://www.w3.org/2000/svg">
<metadata></metadata>
<defs>
<font id="lord_juusai_risesregular" horiz-adv-x="884" >
<font-face units-per-em="2048" ascent="1638" descent="-410" />
<missing-glyph horiz-adv-x="384" />
<glyph horiz-adv-x="0" />
<glyph horiz-adv-x="682" />
<glyph unicode=" "  horiz-adv-x="384" />
<glyph unicode="&#x09;" horiz-adv-x="384" />
<glyph unicode="&#xa0;" horiz-adv-x="384" />
<glyph unicode="!" horiz-adv-x="372" d="M-128 1152h384v-896h-256v768h128zM0 0v128h256v-128h-256z" />
<glyph unicode="&#x22;" horiz-adv-x="756" d="M0 1024v128h256v-256zM384 896v256h256v-128z" />
<glyph unicode="'" horiz-adv-x="372" d="M0 896v256h256v-128z" />
<glyph unicode="(" horiz-adv-x="500" d="M0 128v896q0 52 36 90q38 38 92 38h256v-128h-128v-896h128v-128h-256q-54 0 -92 36q-36 38 -36 92z" />
<glyph unicode=")" horiz-adv-x="500" d="M0 0v128h128v448l128 64h-128v384h-128v128l128 -64v64h128q52 0 90 -38t38 -90v-896q0 -54 -38 -92q-38 -36 -90 -36h-256z" />
<glyph unicode="," horiz-adv-x="372" d="M0 -128v256h256v-128z" />
<glyph unicode="." horiz-adv-x="372" d="M0 0v128h256v-128h-256z" />
<glyph unicode="0" d="M0 128v896q0 52 36 90q38 38 92 38h256l128 -64v64h128q52 0 90 -38t38 -90v-896q0 -54 -38 -92q-38 -36 -90 -36h-512q-54 0 -92 36q-36 38 -36 92zM256 128h256v448l128 64h-128v384h-256v-896z" />
<glyph unicode="1" horiz-adv-x="372" d="M-128 1152h384v-1152h-256v1024h128z" />
<glyph unicode="2" d="M0 -256v704l512 256v320h-256v-128h-256v128q0 52 36 90q38 38 92 38h256l128 -64v64h128q52 0 90 -38t38 -90v-320l-512 -256v-320h256v128h256v-256h-384l-128 64v-192z" />
<glyph unicode="3" d="M0 -256v512h256v-128h256v384h-256l256 128v384h-256v-128h-256v128q0 52 36 90q38 38 92 38h256l128 -64v64h128q52 0 90 -38t38 -90v-320l-128 -64q52 0 90 -38t38 -90v-384q0 -54 -38 -92q-38 -36 -90 -36h-384v-128z" />
<glyph unicode="4" d="M-128 1152h384v-512h256v640l256 128v-768h-128q52 0 90 -38t38 -90v-512l-256 128v384h-384q-54 0 -92 36q-36 38 -36 92v384h128z" />
<glyph unicode="5" d="M0 -256v512h256v-128h256v448l-512 -256v832h384l128 -64v64h256v-256h-256v128h-256v-448l512 256v-704q0 -54 -38 -92q-38 -36 -90 -36h-256l-128 64v-192z" />
<glyph unicode="6" d="M0 0v1024q0 52 36 90q38 38 92 38h256l128 -64v64h256v-256h-256v128h-256v-448l512 256v-704q0 -54 -38 -92q-38 -36 -90 -36h-256l-128 64v-64h-256zM256 128h256v448l-256 -128v-320z" />
<glyph unicode="7" d="M0 -256v704l512 256v320h-256v-128h-256v256h384l128 -64v64h256v-448l-512 -256v-576z" />
<glyph unicode="8" d="M0 128v384l256 128h256l256 -128v-384q0 -54 -38 -92q-38 -36 -90 -36h-512q-54 0 -92 36q-36 38 -36 92zM0 768v256q0 52 36 90q38 38 92 38h512q52 0 90 -38t38 -90v-256l-256 -128v384h-256v-384zM256 128h256v384h-256v-384z" />
<glyph unicode="9" d="M0 -256v512h256v-128h256v448l-512 -256v704q0 52 36 90q38 38 92 38h256l128 -64v64h256v-1024q0 -54 -38 -92q-38 -36 -90 -36h-256l-128 64v-192zM256 576l256 128v320h-256v-448z" />
<glyph unicode="?" d="M0 128h256v-256l-256 -128v384zM0 256v192l512 256v320h-256v-128h-256v128q0 52 36 90q38 38 92 38h256l128 -64v64h128q52 0 90 -38t38 -90v-320l-512 -256v-192h-256z" />
<glyph unicode="A" d="M-128 1152h512l128 -64v64h128q52 0 90 -38t38 -90v-1024l-256 128v384h-128l-128 64v-704l-256 -128v1280h128zM256 640h256v384h-256v-384z" />
<glyph unicode="B" d="M-128 1152h384v-64l128 64h256q52 0 90 -38t38 -90v-256l-256 -128h128q52 0 90 -38t38 -90v-384q0 -54 -38 -92q-38 -36 -90 -36h-512q-54 0 -92 36q-36 38 -36 92v896h128zM256 128h256v384h-256v-384zM256 640h256v384h-256v-384z" />
<glyph unicode="C" d="M0 128v896q0 52 36 90q38 38 92 38h256l128 -64v64h128q52 0 90 -38t38 -90v-256l-256 128v128h-256v-320l-128 -64h128v-512h256v128h256v-512l-256 128v128h-384q-54 0 -92 36q-36 38 -36 92z" />
<glyph unicode="D" d="M-128 1152h512l128 -64v64h128q52 0 90 -38t38 -90v-896q0 -54 -38 -92q-38 -36 -90 -36h-640v1024h128zM256 128h256v896h-256v-896z" />
<glyph unicode="E" d="M-128 1152h512l128 -64v64l256 128v-384h-256v128h-256v-384l-256 128v256h128zM0 -256v768q0 52 36 90q38 38 92 38h384v-128h-256v-448l128 64h128v128l256 128v-256q0 -54 -38 -92q-38 -36 -90 -36h-384v-128z" />
<glyph unicode="F" d="M-128 640h128v384h128l-256 128h512l128 -64v64l256 128v-384h-256v128h-256v-384h384l-256 -128h-128v-640l-256 -128v768h128z" />
<glyph unicode="G" d="M0 128v896q0 52 36 90q38 38 92 38h256l128 -64v64h128q52 0 90 -38t38 -90v-128h-256v128h-256v-896h256v384h-256l512 256v-1024l-256 128v128h-384q-54 0 -92 36q-36 38 -36 92z" />
<glyph unicode="H" d="M-128 1152h384v-512h256v640l256 128v-768q0 -54 -38 -92q-38 -36 -90 -36h128v-512l-256 128v384h-256v-640l-256 -128v768q0 52 36 90q38 38 92 38h-128v384h128z" />
<glyph unicode="I" horiz-adv-x="372" d="M-128 1152h384v-1152h-256v1024h128z" />
<glyph unicode="J" d="M0 -256v512h256v-128h256v576l128 64h-128v512l256 128v-1280q0 -54 -38 -92q-38 -36 -90 -36h-256l-128 64v-192z" />
<glyph unicode="K" d="M-128 1152h384v-512h256v640l256 128v-640l-256 -128h128q52 0 90 -38t38 -90v-512h-256v512h-256v-640l-256 -128v768q0 52 36 90q38 38 92 38h-128v384h128z" />
<glyph unicode="L" d="M0 -256v1024l256 -128v-512h256v128h256v-128q0 -54 -38 -92q-38 -36 -90 -36h-256l-128 64v-192zM0 768v640l256 -128v-512h-256z" />
<glyph unicode="M" horiz-adv-x="1396" d="M0 -128v1472l512 -256v256l768 -384v-832h-128l256 -128h-384v960l-256 128v-960h-128l256 -128h-384v960l-256 128v-512l-128 -64h128v-512z" />
<glyph unicode="N" d="M-128 1152h384v-192l256 -128v320h256v-1152l-256 128v576l-256 128v-960l-256 -128v1280h128z" />
<glyph unicode="O" d="M0 128v896q0 52 36 90q38 38 92 38h256l128 -64v64h128q52 0 90 -38t38 -90v-896q0 -54 -38 -92q-38 -36 -90 -36h-512q-54 0 -92 36q-36 38 -36 92zM256 128h256v448l128 64h-128v384h-256v-896z" />
<glyph unicode="P" d="M-128 1152h768q52 0 90 -38t38 -90v-320l-128 -64h128q0 -54 -38 -92q-38 -36 -90 -36h-384v-640l-256 -128v768h128q-54 0 -92 36q-36 38 -36 92v384h128zM256 640h256v384h-256v-384z" />
<glyph unicode="Q" d="M0 128v896q0 52 36 90q38 38 92 38h256l128 -64v64h128q52 0 90 -38t38 -90v-768l-256 -128l256 -128h-640q-54 0 -92 36q-36 38 -36 92zM256 128l256 128v320l128 64h-128v384h-256v-896z" />
<glyph unicode="R" d="M-128 1152h768q52 0 90 -38t38 -90v-256l-256 -128h128q52 0 90 -38t38 -90v-384q0 -54 -38 -92q-38 -36 -90 -36h-128v512h-256v-640l-256 -128v768h128q-54 0 -92 36q-36 38 -36 92v384h128zM256 640h256v384h-256v-384z" />
<glyph unicode="S" d="M0 -256v512h256v-128h256v448l-512 -256v704q0 52 36 90q38 38 92 38h256l128 -64v192l256 128v-512h-256v128h-256v-448l512 256v-704q0 -54 -38 -92q-38 -36 -90 -36h-256l-128 64v-192z" />
<glyph unicode="T" d="M-128 1152h896v-128h-256v-1152l-256 -128v832l128 64h-128v384h-128z" />
<glyph unicode="U" d="M-128 1152h384v-1024h256v448l128 64h-128v512l256 128v-1152q0 -54 -38 -92q-38 -36 -90 -36h-512q-54 0 -92 36q-36 38 -36 92v896h128z" />
<glyph unicode="V" d="M-128 1152h384v-960l256 -128v512l128 64h-128v512l256 128v-1472l-768 384v832h128z" />
<glyph unicode="W" horiz-adv-x="1396" d="M-128 1152h384v-960l256 -128v960h128l-256 128h384v-960l256 -128v512l128 64h-128v512l256 128v-1472l-512 256v-256l-768 384v832h128z" />
<glyph unicode="X" d="M0 -256v768l256 128h256l256 -128v-512h-256v512h-256v-640zM0 768v384h256v-512zM512 640v640l256 128v-640z" />
<glyph unicode="Y" d="M-128 1152h384v-512h256v512l256 128v-704l-128 -64h-128v-640l-256 -128v768h-128l-128 64v448h128z" />
<glyph unicode="Z" d="M0 -256v704l512 256v320h-256v-128h-256v256h384l128 -64v64h256v-448l-512 -256v-320h256v128h256v-128q0 -54 -38 -92q-38 -36 -90 -36h-256l-128 64v-192z" />
<glyph unicode="[" horiz-adv-x="500" d="M0 0v1152h384v-128h-128v-896h128v-128h-384z" />
<glyph unicode="]" horiz-adv-x="500" d="M0 0v128h128v448l128 64h-128v384h-128v128l128 -64v64h256v-1152h-384z" />
<glyph unicode="_" d="M0 0v128h256v-64l128 64h384q0 -54 -38 -92q-38 -36 -90 -36h-640z" />
<glyph unicode="a" d="M-128 1152h512l128 -64v64h128q52 0 90 -38t38 -90v-1024l-256 128v384h-128l-128 64v-704l-256 -128v1280h128zM256 640h256v384h-256v-384z" />
<glyph unicode="b" d="M-128 1152h384v-64l128 64h256q52 0 90 -38t38 -90v-256l-256 -128h128q52 0 90 -38t38 -90v-384q0 -54 -38 -92q-38 -36 -90 -36h-512q-54 0 -92 36q-36 38 -36 92v896h128zM256 128h256v384h-256v-384zM256 640h256v384h-256v-384z" />
<glyph unicode="c" d="M0 128v896q0 52 36 90q38 38 92 38h256l128 -64v64h128q52 0 90 -38t38 -90v-256l-256 128v128h-256v-320l-128 -64h128v-512h256v128h256v-512l-256 128v128h-384q-54 0 -92 36q-36 38 -36 92z" />
<glyph unicode="d" d="M-128 1152h512l128 -64v64h128q52 0 90 -38t38 -90v-896q0 -54 -38 -92q-38 -36 -90 -36h-640v1024h128zM256 128h256v896h-256v-896z" />
<glyph unicode="e" d="M-128 1152h512l128 -64v64l256 128v-384h-256v128h-256v-384l-256 128v256h128zM0 -256v768q0 52 36 90q38 38 92 38h384v-128h-256v-448l128 64h128v128l256 128v-256q0 -54 -38 -92q-38 -36 -90 -36h-384v-128z" />
<glyph unicode="f" d="M-128 640h128v384h128l-256 128h512l128 -64v64l256 128v-384h-256v128h-256v-384h384l-256 -128h-128v-640l-256 -128v768h128z" />
<glyph unicode="g" d="M0 128v896q0 52 36 90q38 38 92 38h256l128 -64v64h128q52 0 90 -38t38 -90v-128h-256v128h-256v-896h256v384h-256l512 256v-1024l-256 128v128h-384q-54 0 -92 36q-36 38 -36 92z" />
<glyph unicode="h" d="M-128 1152h384v-512h256v640l256 128v-768q0 -54 -38 -92q-38 -36 -90 -36h128v-512l-256 128v384h-256v-640l-256 -128v768q0 52 36 90q38 38 92 38h-128v384h128z" />
<glyph unicode="i" horiz-adv-x="372" d="M-128 1152h384v-1152h-256v1024h128z" />
<glyph unicode="j" d="M0 -256v512h256v-128h256v576l128 64h-128v512l256 128v-1280q0 -54 -38 -92q-38 -36 -90 -36h-256l-128 64v-192z" />
<glyph unicode="k" d="M-128 1152h384v-512h256v640l256 128v-640l-256 -128h128q52 0 90 -38t38 -90v-512h-256v512h-256v-640l-256 -128v768q0 52 36 90q38 38 92 38h-128v384h128z" />
<glyph unicode="l" d="M0 -256v1024l256 -128v-512h256v128h256v-128q0 -54 -38 -92q-38 -36 -90 -36h-256l-128 64v-192zM0 768v640l256 -128v-512h-256z" />
<glyph unicode="m" horiz-adv-x="1396" d="M0 -128v1472l512 -256v256l768 -384v-832h-128l256 -128h-384v960l-256 128v-960h-128l256 -128h-384v960l-256 128v-512l-128 -64h128v-512z" />
<glyph unicode="n" d="M-128 1152h384v-192l256 -128v320h256v-1152l-256 128v576l-256 128v-960l-256 -128v1280h128z" />
<glyph unicode="o" d="M0 128v896q0 52 36 90q38 38 92 38h256l128 -64v64h128q52 0 90 -38t38 -90v-896q0 -54 -38 -92q-38 -36 -90 -36h-512q-54 0 -92 36q-36 38 -36 92zM256 128h256v448l128 64h-128v384h-256v-896z" />
<glyph unicode="p" d="M-128 1152h768q52 0 90 -38t38 -90v-320l-128 -64h128q0 -54 -38 -92q-38 -36 -90 -36h-384v-640l-256 -128v768h128q-54 0 -92 36q-36 38 -36 92v384h128zM256 640h256v384h-256v-384z" />
<glyph unicode="q" d="M0 128v896q0 52 36 90q38 38 92 38h256l128 -64v64h128q52 0 90 -38t38 -90v-768l-256 -128l256 -128h-640q-54 0 -92 36q-36 38 -36 92zM256 128l256 128v320l128 64h-128v384h-256v-896z" />
<glyph unicode="r" d="M-128 1152h768q52 0 90 -38t38 -90v-256l-256 -128h128q52 0 90 -38t38 -90v-384q0 -54 -38 -92q-38 -36 -90 -36h-128v512h-256v-640l-256 -128v768h128q-54 0 -92 36q-36 38 -36 92v384h128zM256 640h256v384h-256v-384z" />
<glyph unicode="s" d="M0 -256v512h256v-128h256v448l-512 -256v704q0 52 36 90q38 38 92 38h256l128 -64v192l256 128v-512h-256v128h-256v-448l512 256v-704q0 -54 -38 -92q-38 -36 -90 -36h-256l-128 64v-192z" />
<glyph unicode="t" d="M-128 1152h896v-128h-256v-1152l-256 -128v832l128 64h-128v384h-128z" />
<glyph unicode="u" d="M-128 1152h384v-1024h256v448l128 64h-128v512l256 128v-1152q0 -54 -38 -92q-38 -36 -90 -36h-512q-54 0 -92 36q-36 38 -36 92v896h128z" />
<glyph unicode="v" d="M-128 1152h384v-960l256 -128v512l128 64h-128v512l256 128v-1472l-768 384v832h128z" />
<glyph unicode="w" horiz-adv-x="1396" d="M-128 1152h384v-960l256 -128v960h128l-256 128h384v-960l256 -128v512l128 64h-128v512l256 128v-1472l-512 256v-256l-768 384v832h128z" />
<glyph unicode="x" d="M0 -256v768l256 128h256l256 -128v-512h-256v512h-256v-640zM0 768v384h256v-512zM512 640v640l256 128v-640z" />
<glyph unicode="y" d="M-128 1152h384v-512h256v512l256 128v-704l-128 -64h-128v-640l-256 -128v768h-128l-128 64v448h128z" />
<glyph unicode="z" d="M0 -256v704l512 256v320h-256v-128h-256v256h384l128 -64v64h256v-448l-512 -256v-320h256v128h256v-128q0 -54 -38 -92q-38 -36 -90 -36h-256l-128 64v-192z" />
<glyph unicode="{" horiz-adv-x="500" d="M-128 512v128h128v384q0 52 36 90q38 38 92 38h256v-128h-128v-896h128v-128h-256q-54 0 -92 36q-36 38 -36 92v384h-128z" />
<glyph unicode="}" horiz-adv-x="500" d="M0 0v128h128v448l128 64h-128v384h-128v128l128 -64v64h128q52 0 90 -38t38 -90v-384h128v-128h-128v-384q0 -54 -38 -92q-38 -36 -90 -36h-256z" />
<glyph unicode="&#xc0;" d="M-128 1152h512l128 -64v64h128q52 0 90 -38t38 -90v-1024l-256 128v384h-128l-128 64v-704l-256 -128v1280h128zM256 640h256v384h-256v-384z" />
<glyph unicode="&#xc1;" d="M-128 1152h512l128 -64v64h128q52 0 90 -38t38 -90v-1024l-256 128v384h-128l-128 64v-704l-256 -128v1280h128zM256 640h256v384h-256v-384z" />
<glyph unicode="&#xc2;" d="M-128 1152h512l128 -64v64h128q52 0 90 -38t38 -90v-1024l-256 128v384h-128l-128 64v-704l-256 -128v1280h128zM256 640h256v384h-256v-384z" />
<glyph unicode="&#xc3;" d="M-128 1152h512l128 -64v64h128q52 0 90 -38t38 -90v-1024l-256 128v384h-128l-128 64v-704l-256 -128v1280h128zM256 640h256v384h-256v-384z" />
<glyph unicode="&#xc4;" d="M-128 1152h512l128 -64v64h128q52 0 90 -38t38 -90v-1024l-256 128v384h-128l-128 64v-704l-256 -128v1280h128zM256 640h256v384h-256v-384z" />
<glyph unicode="&#xc5;" d="M-128 1152h512l128 -64v64h128q52 0 90 -38t38 -90v-1024l-256 128v384h-128l-128 64v-704l-256 -128v1280h128zM256 640h256v384h-256v-384z" />
<glyph unicode="&#xc7;" d="M0 128v896q0 52 36 90q38 38 92 38h256l128 -64v64h128q52 0 90 -38t38 -90v-256l-256 128v128h-256v-320l-128 -64h128v-512h256v128h256v-512l-256 128v128h-384q-54 0 -92 36q-36 38 -36 92z" />
<glyph unicode="&#xc8;" d="M-128 1152h512l128 -64v64l256 128v-384h-256v128h-256v-384l-256 128v256h128zM0 -256v768q0 52 36 90q38 38 92 38h384v-128h-256v-448l128 64h128v128l256 128v-256q0 -54 -38 -92q-38 -36 -90 -36h-384v-128z" />
<glyph unicode="&#xc9;" d="M-128 1152h512l128 -64v64l256 128v-384h-256v128h-256v-384l-256 128v256h128zM0 -256v768q0 52 36 90q38 38 92 38h384v-128h-256v-448l128 64h128v128l256 128v-256q0 -54 -38 -92q-38 -36 -90 -36h-384v-128z" />
<glyph unicode="&#xca;" d="M-128 1152h512l128 -64v64l256 128v-384h-256v128h-256v-384l-256 128v256h128zM0 -256v768q0 52 36 90q38 38 92 38h384v-128h-256v-448l128 64h128v128l256 128v-256q0 -54 -38 -92q-38 -36 -90 -36h-384v-128z" />
<glyph unicode="&#xcb;" d="M-128 1152h512l128 -64v64l256 128v-384h-256v128h-256v-384l-256 128v256h128zM0 -256v768q0 52 36 90q38 38 92 38h384v-128h-256v-448l128 64h128v128l256 128v-256q0 -54 -38 -92q-38 -36 -90 -36h-384v-128z" />
<glyph unicode="&#xcc;" horiz-adv-x="372" d="M-128 1152h384v-1152h-256v1024h128z" />
<glyph unicode="&#xcd;" horiz-adv-x="372" d="M-128 1152h384v-1152h-256v1024h128z" />
<glyph unicode="&#xce;" horiz-adv-x="372" d="M-128 1152h384v-1152h-256v1024h128z" />
<glyph unicode="&#xcf;" horiz-adv-x="372" d="M-128 1152h384v-1152h-256v1024h128z" />
<glyph unicode="&#xd1;" d="M-128 1152h384v-192l256 -128v320h256v-1152l-256 128v576l-256 128v-960l-256 -128v1280h128z" />
<glyph unicode="&#xd2;" d="M0 128v896q0 52 36 90q38 38 92 38h256l128 -64v64h128q52 0 90 -38t38 -90v-896q0 -54 -38 -92q-38 -36 -90 -36h-512q-54 0 -92 36q-36 38 -36 92zM256 128h256v448l128 64h-128v384h-256v-896z" />
<glyph unicode="&#xd3;" d="M0 128v896q0 52 36 90q38 38 92 38h256l128 -64v64h128q52 0 90 -38t38 -90v-896q0 -54 -38 -92q-38 -36 -90 -36h-512q-54 0 -92 36q-36 38 -36 92zM256 128h256v448l128 64h-128v384h-256v-896z" />
<glyph unicode="&#xd4;" d="M0 128v896q0 52 36 90q38 38 92 38h256l128 -64v64h128q52 0 90 -38t38 -90v-896q0 -54 -38 -92q-38 -36 -90 -36h-512q-54 0 -92 36q-36 38 -36 92zM256 128h256v448l128 64h-128v384h-256v-896z" />
<glyph unicode="&#xd5;" d="M0 128v896q0 52 36 90q38 38 92 38h256l128 -64v64h128q52 0 90 -38t38 -90v-896q0 -54 -38 -92q-38 -36 -90 -36h-512q-54 0 -92 36q-36 38 -36 92zM256 128h256v448l128 64h-128v384h-256v-896z" />
<glyph unicode="&#xd6;" d="M0 128v896q0 52 36 90q38 38 92 38h256l128 -64v64h128q52 0 90 -38t38 -90v-896q0 -54 -38 -92q-38 -36 -90 -36h-512q-54 0 -92 36q-36 38 -36 92zM256 128h256v448l128 64h-128v384h-256v-896z" />
<glyph unicode="&#xd8;" d="M0 128v896q0 52 36 90q38 38 92 38h256l128 -64v64h128q52 0 90 -38t38 -90v-896q0 -54 -38 -92q-38 -36 -90 -36h-512q-54 0 -92 36q-36 38 -36 92zM256 128h256v448l128 64h-128v384h-256v-896z" />
<glyph unicode="&#xd9;" d="M-128 1152h384v-1024h256v448l128 64h-128v512l256 128v-1152q0 -54 -38 -92q-38 -36 -90 -36h-512q-54 0 -92 36q-36 38 -36 92v896h128z" />
<glyph unicode="&#xda;" d="M-128 1152h384v-1024h256v448l128 64h-128v512l256 128v-1152q0 -54 -38 -92q-38 -36 -90 -36h-512q-54 0 -92 36q-36 38 -36 92v896h128z" />
<glyph unicode="&#xdb;" d="M-128 1152h384v-1024h256v448l128 64h-128v512l256 128v-1152q0 -54 -38 -92q-38 -36 -90 -36h-512q-54 0 -92 36q-36 38 -36 92v896h128z" />
<glyph unicode="&#xdc;" d="M-128 1152h384v-1024h256v448l128 64h-128v512l256 128v-1152q0 -54 -38 -92q-38 -36 -90 -36h-512q-54 0 -92 36q-36 38 -36 92v896h128z" />
<glyph unicode="&#xe0;" d="M-128 1152h512l128 -64v64h128q52 0 90 -38t38 -90v-1024l-256 128v384h-128l-128 64v-704l-256 -128v1280h128zM256 640h256v384h-256v-384z" />
<glyph unicode="&#xe1;" d="M-128 1152h512l128 -64v64h128q52 0 90 -38t38 -90v-1024l-256 128v384h-128l-128 64v-704l-256 -128v1280h128zM256 640h256v384h-256v-384z" />
<glyph unicode="&#xe2;" d="M-128 1152h512l128 -64v64h128q52 0 90 -38t38 -90v-1024l-256 128v384h-128l-128 64v-704l-256 -128v1280h128zM256 640h256v384h-256v-384z" />
<glyph unicode="&#xe3;" d="M-128 1152h512l128 -64v64h128q52 0 90 -38t38 -90v-1024l-256 128v384h-128l-128 64v-704l-256 -128v1280h128zM256 640h256v384h-256v-384z" />
<glyph unicode="&#xe4;" d="M-128 1152h512l128 -64v64h128q52 0 90 -38t38 -90v-1024l-256 128v384h-128l-128 64v-704l-256 -128v1280h128zM256 640h256v384h-256v-384z" />
<glyph unicode="&#xe5;" d="M-128 1152h512l128 -64v64h128q52 0 90 -38t38 -90v-1024l-256 128v384h-128l-128 64v-704l-256 -128v1280h128zM256 640h256v384h-256v-384z" />
<glyph unicode="&#xe7;" d="M0 128v896q0 52 36 90q38 38 92 38h256l128 -64v64h128q52 0 90 -38t38 -90v-256l-256 128v128h-256v-320l-128 -64h128v-512h256v128h256v-512l-256 128v128h-384q-54 0 -92 36q-36 38 -36 92z" />
<glyph unicode="&#xe8;" d="M-128 1152h512l128 -64v64l256 128v-384h-256v128h-256v-384l-256 128v256h128zM0 -256v768q0 52 36 90q38 38 92 38h384v-128h-256v-448l128 64h128v128l256 128v-256q0 -54 -38 -92q-38 -36 -90 -36h-384v-128z" />
<glyph unicode="&#xe9;" d="M-128 1152h512l128 -64v64l256 128v-384h-256v128h-256v-384l-256 128v256h128zM0 -256v768q0 52 36 90q38 38 92 38h384v-128h-256v-448l128 64h128v128l256 128v-256q0 -54 -38 -92q-38 -36 -90 -36h-384v-128z" />
<glyph unicode="&#xea;" d="M-128 1152h512l128 -64v64l256 128v-384h-256v128h-256v-384l-256 128v256h128zM0 -256v768q0 52 36 90q38 38 92 38h384v-128h-256v-448l128 64h128v128l256 128v-256q0 -54 -38 -92q-38 -36 -90 -36h-384v-128z" />
<glyph unicode="&#xeb;" d="M-128 1152h512l128 -64v64l256 128v-384h-256v128h-256v-384l-256 128v256h128zM0 -256v768q0 52 36 90q38 38 92 38h384v-128h-256v-448l128 64h128v128l256 128v-256q0 -54 -38 -92q-38 -36 -90 -36h-384v-128z" />
<glyph unicode="&#xec;" horiz-adv-x="372" d="M-128 1152h384v-1152h-256v1024h128z" />
<glyph unicode="&#xed;" horiz-adv-x="372" d="M-128 1152h384v-1152h-256v1024h128z" />
<glyph unicode="&#xee;" horiz-adv-x="372" d="M-128 1152h384v-1152h-256v1024h128z" />
<glyph unicode="&#xef;" horiz-adv-x="372" d="M-128 1152h384v-1152h-256v1024h128z" />
<glyph unicode="&#xf1;" d="M-128 1152h384v-192l256 -128v320h256v-1152l-256 128v576l-256 128v-960l-256 -128v1280h128z" />
<glyph unicode="&#xf2;" d="M0 128v896q0 52 36 90q38 38 92 38h256l128 -64v64h128q52 0 90 -38t38 -90v-896q0 -54 -38 -92q-38 -36 -90 -36h-512q-54 0 -92 36q-36 38 -36 92zM256 128h256v448l128 64h-128v384h-256v-896z" />
<glyph unicode="&#xf3;" d="M0 128v896q0 52 36 90q38 38 92 38h256l128 -64v64h128q52 0 90 -38t38 -90v-896q0 -54 -38 -92q-38 -36 -90 -36h-512q-54 0 -92 36q-36 38 -36 92zM256 128h256v448l128 64h-128v384h-256v-896z" />
<glyph unicode="&#xf4;" d="M0 128v896q0 52 36 90q38 38 92 38h256l128 -64v64h128q52 0 90 -38t38 -90v-896q0 -54 -38 -92q-38 -36 -90 -36h-512q-54 0 -92 36q-36 38 -36 92zM256 128h256v448l128 64h-128v384h-256v-896z" />
<glyph unicode="&#xf5;" d="M0 128v896q0 52 36 90q38 38 92 38h256l128 -64v64h128q52 0 90 -38t38 -90v-896q0 -54 -38 -92q-38 -36 -90 -36h-512q-54 0 -92 36q-36 38 -36 92zM256 128h256v448l128 64h-128v384h-256v-896z" />
<glyph unicode="&#xf6;" d="M0 128v896q0 52 36 90q38 38 92 38h256l128 -64v64h128q52 0 90 -38t38 -90v-896q0 -54 -38 -92q-38 -36 -90 -36h-512q-54 0 -92 36q-36 38 -36 92zM256 128h256v448l128 64h-128v384h-256v-896z" />
<glyph unicode="&#xf8;" d="M0 128v896q0 52 36 90q38 38 92 38h256l128 -64v64h128q52 0 90 -38t38 -90v-896q0 -54 -38 -92q-38 -36 -90 -36h-512q-54 0 -92 36q-36 38 -36 92zM256 128h256v448l128 64h-128v384h-256v-896z" />
<glyph unicode="&#xf9;" d="M-128 1152h384v-1024h256v448l128 64h-128v512l256 128v-1152q0 -54 -38 -92q-38 -36 -90 -36h-512q-54 0 -92 36q-36 38 -36 92v896h128z" />
<glyph unicode="&#xfa;" d="M-128 1152h384v-1024h256v448l128 64h-128v512l256 128v-1152q0 -54 -38 -92q-38 -36 -90 -36h-512q-54 0 -92 36q-36 38 -36 92v896h128z" />
<glyph unicode="&#xfb;" d="M-128 1152h384v-1024h256v448l128 64h-128v512l256 128v-1152q0 -54 -38 -92q-38 -36 -90 -36h-512q-54 0 -92 36q-36 38 -36 92v896h128z" />
<glyph unicode="&#xfc;" d="M-128 1152h384v-1024h256v448l128 64h-128v512l256 128v-1152q0 -54 -38 -92q-38 -36 -90 -36h-512q-54 0 -92 36q-36 38 -36 92v896h128z" />
<glyph unicode="&#xff;" d="M-128 1152h384v-512h256v512l256 128v-704l-128 -64h-128v-640l-256 -128v768h-128l-128 64v448h128z" />
<glyph unicode="&#x178;" d="M-128 1152h384v-512h256v512l256 128v-704l-128 -64h-128v-640l-256 -128v768h-128l-128 64v448h128z" />
<glyph unicode="&#x2000;" horiz-adv-x="705" />
<glyph unicode="&#x2001;" horiz-adv-x="1410" />
<glyph unicode="&#x2002;" horiz-adv-x="705" />
<glyph unicode="&#x2003;" horiz-adv-x="1410" />
<glyph unicode="&#x2004;" horiz-adv-x="470" />
<glyph unicode="&#x2005;" horiz-adv-x="352" />
<glyph unicode="&#x2006;" horiz-adv-x="235" />
<glyph unicode="&#x2007;" horiz-adv-x="235" />
<glyph unicode="&#x2008;" horiz-adv-x="176" />
<glyph unicode="&#x2009;" horiz-adv-x="282" />
<glyph unicode="&#x200a;" horiz-adv-x="78" />
<glyph unicode="&#x2018;" horiz-adv-x="372" d="M0 896v256h256v-128z" />
<glyph unicode="&#x2019;" horiz-adv-x="372" d="M0 896v256h256v-128z" />
<glyph unicode="&#x201c;" horiz-adv-x="756" d="M0 896v256h256v-128zM384 896v256h256v-128z" />
<glyph unicode="&#x201d;" horiz-adv-x="756" d="M0 896v256h256v-128zM384 896v256h256v-128z" />
<glyph unicode="&#x202f;" horiz-adv-x="282" />
<glyph unicode="&#x205f;" horiz-adv-x="352" />
<glyph unicode="&#x25fc;" horiz-adv-x="1410" d="M0 0v1410h1410v-1410h-1410z" />
</font>
</defs>
</svg>
